<svg width="24" height="24" viewBox="0 0 24 24" fill="none" xmlns="http://www.w3.org/2000/svg">
<path fill-rule="evenodd" clip-rule="evenodd" d="M9.21838 3.54469C9.87627 2.87636 10.7749 2.5 11.7127 2.5H19C20.933 2.5 22.5 4.067 22.5 6V18C22.5 19.933 20.933 21.5 19 21.5H11.7127C10.7749 21.5 9.87627 21.1236 9.21838 20.4553L3.31213 14.4553C1.97117 13.0931 1.97117 10.9069 3.31213 9.54469L9.21838 3.54469ZM11.7127 5.5C11.5787 5.5 11.4503 5.55377 11.3563 5.64924L5.45009 11.6492C5.25852 11.8438 5.25852 12.1562 5.45009 12.3508L11.3563 18.3508C11.4503 18.4462 11.5787 18.5 11.7127 18.5H19C19.2761 18.5 19.5 18.2761 19.5 18V6C19.5 5.72386 19.2761 5.5 19 5.5H11.7127Z" fill="#5F46FC"/>
<path fill-rule="evenodd" clip-rule="evenodd" d="M10.9393 8.93934C11.5251 8.35355 12.4749 8.35355 13.0607 8.93934L17.0607 12.9393C17.6464 13.5251 17.6464 14.4749 17.0607 15.0607C16.4749 15.6464 15.5251 15.6464 14.9393 15.0607L10.9393 11.0607C10.3536 10.4749 10.3536 9.52513 10.9393 8.93934Z" fill="#5F46FC"/>
<path fill-rule="evenodd" clip-rule="evenodd" d="M17.0607 8.93934C17.6464 9.52513 17.6464 10.4749 17.0607 11.0607L13.0607 15.0607C12.4749 15.6464 11.5251 15.6464 10.9393 15.0607C10.3536 14.4749 10.3536 13.5251 10.9393 12.9393L14.9393 8.93934C15.5251 8.35355 16.4749 8.35355 17.0607 8.93934Z" fill="#5F46FC"/>
</svg>
