<svg width="24" height="24" viewBox="0 0 24 24" fill="none" xmlns="http://www.w3.org/2000/svg">
<path fill-rule="evenodd" clip-rule="evenodd" d="M6.85714 5.84211C6.14706 5.84211 5.57143 6.47833 5.57143 7.26316V16.7368C5.57143 17.5217 6.14706 18.1579 6.85714 18.1579H17.1429C17.8529 18.1579 18.4286 17.5217 18.4286 16.7368V7.26316C18.4286 6.47833 17.8529 5.84211 17.1429 5.84211H6.85714ZM3 7.26316C3 4.90868 4.7269 3 6.85714 3H17.1429C19.2731 3 21 4.90868 21 7.26316V16.7368C21 19.0913 19.2731 21 17.1429 21H6.85714C4.7269 21 3 19.0913 3 16.7368V7.26316Z" fill="#5F46FC"/>
</svg>
